<svg width="1024" height="1024" viewBox="0 0 1024 1024" fill="none" xmlns="http://www.w3.org/2000/svg">
<g clip-path="url(#clip0_983_27795)">
<path d="M0 0H1024V1024H0V0Z" fill="black"/>
<path d="M500.013 812.399L499.966 838.813C499.965 857.641 500.454 869.962 488.945 886.36C479.165 900.295 464.216 909.738 447.432 912.587C434.752 914.737 407.82 913.969 393.606 913.952L302.309 913.937L219.48 913.958C206.577 913.982 183.961 914.664 172.06 913.196C160.461 911.858 149.405 907.54 139.969 900.663C124.05 889.348 113.406 872.055 110.477 852.746C109.044 843.895 109.5 829.226 109.492 819.663L109.473 767.342L109.596 577.825L109.853 305.708L109.857 223.59C109.796 210.371 108.992 187.762 110.001 175.172C111.03 162.252 115.679 149.883 123.415 139.484C133.343 125.936 152.157 113.705 168.739 111.821C182.269 110.283 200.326 110.875 214.395 110.818L305.693 110.644L396.904 110.502C408.197 110.494 433.426 109.82 443.559 111.074C455.032 112.571 465.942 116.942 475.275 123.781C490.597 135.197 497.902 150.267 500.572 168.792C500.809 174.318 501.015 179.357 500.938 184.902L501.374 184.994C501.783 187.311 501.991 210.486 501.227 211.737C499.98 211.938 500.374 211.924 499.067 211.808C498.677 213.076 498.848 214.45 499.536 215.584C500.015 216.387 501.381 216.407 502.444 216.785C503.631 219.421 501.97 221.356 500.136 223.364C497.547 226.2 497.732 230.922 497.276 234.584C498.517 235.012 500.108 235.302 500.341 236.626C501.204 241.543 499.957 250.514 500.199 255.278L500.452 253.96C506.437 255.928 503.259 267.115 506.424 269.827L506.156 269.826L506.96 269.298L507.642 269.875L508.647 268.533C511.444 271.488 512.7 278.991 512.583 283.067C512.363 290.691 512.673 286.334 515.268 290.175L516.37 290.025L517.146 291.873C517.145 291.871 517.143 291.868 517.143 291.866L518.259 292.051C518.379 291.295 516.948 288.048 517.156 285.688C517.512 281.659 516.582 276.031 517.807 272.186C518.48 271.623 519.003 271.221 519.714 270.706C522.42 265.065 519.961 265.587 519.326 259.948C519.024 257.271 518.774 252.509 520.561 250.366C523.475 249.86 522.592 251.932 524.461 250.849C525.171 249.056 525.736 247.058 527.138 245.807C526.156 248.371 524.373 253.408 524.771 256.018C521.558 271.182 522.745 283.326 522.571 298.599C522.354 317.578 522.878 336.883 522.445 355.831C521.363 353.136 521.677 345.83 521.693 342.709C521.232 329.18 519.872 313.286 519.807 300.16C518.737 301.609 520.487 301.548 519.227 304.331C516.719 304.206 514.178 287.356 508.158 285.804C500.987 290.124 504.149 313.673 503.534 321.826L504.284 321.359C504.735 319.196 504.804 318.432 504.923 316.21C505.443 319.896 504.593 327.865 504.876 328.848L505.706 328.356C506.554 330.261 503.702 337.519 502.538 339.345L501.822 338.806L501.612 338.979L501.599 440.861C501.696 452.964 501.73 465.067 501.701 477.17C501.719 480.766 502.399 498.043 500.872 500.008C494.915 501.882 456.615 501.2 449.819 498.101C445.389 495.605 444.47 496.504 438.508 491.971C414.527 473.738 418.44 451.463 418.332 424.843C418.315 420.655 418.905 415.572 416.816 412.093C415.962 411.596 415.396 411.27 414.599 410.691C412.904 403.957 418.083 405.129 415.869 396.454C414.795 392.248 420.054 379.386 417.216 374.573L416.871 374.916C416.75 375.527 415.345 382.999 415.311 383.064C412.859 382.678 412.047 381.895 409.82 381.114C408.431 382.818 408.514 392.567 408.387 395.607C408.144 401.448 402.384 427.129 397.796 429.059C397.573 438.46 397.501 447.863 397.58 457.266C397.608 469.425 396.958 480.165 402.409 491.436C403.528 493.751 406.801 497.35 407.119 499.508L406.234 500.249C399.985 500.789 390.837 500.339 384.349 500.419C374.819 500.537 363.525 500.931 354.145 499.859C344.114 498.359 331.219 491.326 325.158 483.493C312.474 467.103 313.81 449.279 313.722 429.825C313.638 411.201 314.487 392.068 312.786 373.519C312.24 367.57 313.736 364.909 310.229 358.941C308.245 354.991 306.614 340.551 307.197 336.427L307.563 336.571L308.158 338.014L308.553 337.986C308.801 334.923 308.748 331.498 308.771 328.39L307.451 328.658L306.852 328.055C307.066 325.625 308.613 320.085 309.619 317.795C311.669 317.404 311.033 317.096 312.199 317.88L312.128 319.473C313.68 317.109 312.874 312.895 315.249 311.017C316.345 310.92 317.437 310.779 318.521 310.594C319.834 310.358 321.137 310.009 322.201 309.301C328.185 305.317 333.638 306.179 340.21 304.782C341.879 304.187 342.81 303.965 344.602 304.41C347.118 305.035 347.206 304.991 348.472 303.036C348.969 299.37 347.665 299.069 345.84 296.065C346.382 294.545 346.852 294.762 348.752 293.733L348.774 293.019L348.339 292.745C344.325 292.716 327.499 292.591 324.529 293.515C325.044 294.199 325.562 294.54 326.232 295.065L326.201 295.602C324.67 295.917 321.078 296.106 319.847 295.252C320.458 293.862 320.388 294.274 322.261 293.49L322.123 293.021L310.184 292.718L308.926 294.963C307.44 294.488 307.408 295.062 306.195 294.081L307.814 292.66C306.095 292.064 302.388 292.909 301.442 294.914C299.877 293.615 299.421 292.724 297.808 292.631L297.35 293.465C297.588 295.309 297.328 296.27 298.373 297.215L301.21 296.877L301.567 297.475C300.864 299.088 298.927 299.851 297.227 301.108C297.422 302.009 297.645 302.905 297.894 303.793L299.231 302.562L299.876 302.732C299.801 303.971 299.695 305.214 299.643 306.454C299.451 310.986 297.878 315.157 297.587 319.624C296.846 331.007 296.536 342.602 296.124 354.012C295.901 360.214 296.859 368.791 294.835 374.599C293.139 379.465 294.336 437.865 294.308 448.228C294.286 456.347 293.322 465.169 294.167 473.175C294.911 480.215 297.521 486.418 300.558 492.717C301.935 494.398 303.925 496.372 304.255 498.4C302.326 501.818 290.976 499.625 286.727 500.487L286.709 501.16C288.416 502.785 288.351 502.197 288.436 503.952L287.549 503.596L286.687 504.582L285.613 502.792L284.773 502.771C282.86 505.096 285.496 505.505 280.699 506.562C279.621 505.876 279.662 505.567 279.093 504.363C277.481 503.713 275.659 504.09 273.876 504.262L273.381 505.541C268.122 507.526 266.477 512.162 266.796 517.725C266.842 518.533 267.924 518.773 268.23 520.781C271.72 523.477 277.982 520.2 279.468 522.464L278.495 523.453C286.979 523.69 297.228 522.971 305.213 523.488L305.691 524.177C293.407 543.022 293.913 545.409 293.979 567.635L294.136 608.527L294.244 689.974C294.245 702.699 293.524 719.488 294.312 731.877L390.488 731.787C394.059 731.792 416.658 732.3 417.733 731.453L418.512 606.716C418.531 598.788 418.503 590.86 418.426 582.933C418.338 576.977 417.829 567.919 418.97 562.275C420.951 552.53 425.79 543.597 432.87 536.616C451.108 518.514 472.335 524.694 495.718 523.239C497.104 523.153 500.143 523.291 501.121 524.16C502.184 528.671 501.765 547.108 501.755 552.569L501.736 606.2V704.014C501.752 722.198 502.156 740.585 501.27 758.726C500.926 765.759 497.078 784.019 490.845 788.192L490.365 788.683C488.409 790.712 486.769 793.597 484.401 795.97C473.633 806.754 463.01 811.786 447.766 811.923C434.727 812.041 421.727 812.018 408.707 812.012L337.011 811.932L292.438 811.888C278.4 811.937 264.725 813.062 251.1 809.153C243.576 809.703 231.471 799.909 226.452 794.799C210.682 778.743 211.662 761.742 211.877 741.076C211.967 730.364 211.948 719.651 211.821 708.94L211.796 619.864C211.802 605.139 211.658 590.35 211.775 575.636C211.835 567.995 214.53 560.173 217.37 553.183C218.596 550.166 220.205 546.653 220.876 543.51L220.021 543.449C218.767 543.352 218.152 543.187 216.933 542.895C213.318 538.232 224.357 535.992 220.622 527.745C218.882 528.02 218.61 527.927 217.954 529.731C216.055 534.959 207.937 534.857 204.469 537.375C190.419 547.573 192.725 574.591 192.729 589.133L192.745 635.928L192.197 758.243L192.219 807.317C192.214 815.116 192.489 824.598 192.129 832.244C203.947 832.733 305.028 831.191 306.834 833.032C315.268 833.323 324.894 833.079 333.468 833.078L385.526 833.091L426.398 833.14C457.702 833.166 475.224 835.171 500.013 812.399Z" fill="url(#paint0_linear_983_27795)"/>
<path d="M500.013 812.399L499.966 838.813C499.965 857.641 500.454 869.962 488.945 886.36C479.165 900.295 464.216 909.738 447.432 912.587C434.752 914.737 407.82 913.969 393.606 913.952L302.309 913.937L219.48 913.958C206.577 913.982 183.961 914.664 172.06 913.196C160.461 911.858 149.405 907.54 139.969 900.663C124.05 889.348 113.406 872.055 110.477 852.746C109.044 843.895 109.5 829.226 109.492 819.663L109.473 767.342L109.596 577.825L109.853 305.708L109.857 223.59C109.796 210.371 108.992 187.762 110.001 175.172C111.03 162.252 115.679 149.883 123.415 139.484C133.343 125.936 152.157 113.705 168.739 111.821C182.269 110.283 200.326 110.875 214.395 110.818L305.693 110.644L396.904 110.502C408.197 110.494 433.426 109.82 443.559 111.074C455.032 112.571 465.942 116.942 475.275 123.781C490.597 135.197 497.902 150.267 500.572 168.792C500.809 174.318 501.015 179.357 500.938 184.902C500.848 193.453 501.054 203.275 500.686 211.667C474.341 189.988 464.179 191.168 431.754 191.329L385.365 191.452L191.614 191.348L191.051 833.366L271.861 833.256C276.964 833.258 303.287 833.621 306.834 833.032C315.268 833.323 324.894 833.079 333.468 833.078L385.526 833.091L426.398 833.14C457.702 833.166 475.224 835.171 500.013 812.399Z" fill="url(#paint1_linear_983_27795)"/>
<path d="M304.113 498.996L277.703 499.132C258.104 499.21 244.356 499.378 229.079 484.281C221.808 477.16 216.765 468.078 214.565 458.142C212.983 450.783 213.146 439.509 213.099 431.72L213.045 398.281L213.015 284.497C213.022 262.29 210.991 244.803 228.318 228.015C245.067 211.786 259.548 212.869 280.941 212.941L315.741 212.985C358.058 212.98 401.726 212.448 443.927 212.963C458.86 213.056 473.126 219.163 483.5 229.905C501.815 248.829 500.933 266.387 500.912 290.594L500.86 334.035L500.722 499.569C487.618 499.615 462.236 500.926 450.624 497.293L449.815 498.102C445.385 495.606 444.466 496.505 438.504 491.972C414.523 473.739 418.436 451.464 418.328 424.844C418.311 420.656 418.901 415.573 416.812 412.094C415.958 411.597 415.392 411.271 414.595 410.692C412.9 403.958 418.079 405.13 415.865 396.455C414.791 392.249 420.05 379.387 417.212 374.574L416.867 374.917C416.746 375.528 415.341 383 415.307 383.065C412.855 382.679 412.043 381.896 409.816 381.115C408.427 382.819 408.51 392.568 408.383 395.608C408.14 401.449 402.38 427.13 397.792 429.06C397.569 438.461 397.497 447.864 397.576 457.267C397.604 469.426 396.954 480.166 402.405 491.437C403.524 493.752 406.797 497.351 407.115 499.509L406.23 500.25C399.981 500.79 390.833 500.34 384.345 500.42C374.815 500.538 363.52 500.932 354.14 499.86C344.109 498.36 331.215 491.327 325.154 483.494C312.47 467.104 313.805 449.28 313.717 429.826C313.633 411.202 314.482 392.069 312.781 373.52C312.235 367.571 313.731 364.91 310.224 358.942C308.24 354.992 306.61 340.552 307.193 336.428L307.558 336.572L308.154 338.015L308.548 337.987C308.796 334.924 308.744 331.499 308.767 328.391L307.447 328.659L306.848 328.056C307.062 325.626 308.608 320.086 309.614 317.796C311.664 317.405 311.028 317.097 312.194 317.881L312.123 319.474C313.675 317.11 312.87 312.896 315.245 311.018C316.341 310.921 317.433 310.78 318.517 310.595C319.83 310.359 321.133 310.01 322.197 309.302C328.181 305.318 333.634 306.18 340.206 304.783C341.875 304.188 342.806 303.966 344.598 304.411C347.114 305.036 347.201 304.992 348.467 303.037C348.964 299.371 347.661 299.07 345.836 296.066C346.378 294.546 346.847 294.763 348.747 293.734L348.77 293.02L348.335 292.746C344.321 292.717 327.495 292.592 324.525 293.516C325.04 294.2 325.558 294.541 326.228 295.066L326.197 295.603C324.666 295.918 321.074 296.107 319.843 295.253C320.454 293.863 320.383 294.275 322.256 293.491L322.119 293.022L310.18 292.719L308.922 294.964C307.436 294.489 307.403 295.063 306.19 294.082L307.81 292.661C306.091 292.065 302.383 292.91 301.437 294.915C299.872 293.616 299.416 292.725 297.803 292.632L297.345 293.466C297.583 295.31 297.324 296.271 298.369 297.216L301.206 296.878L301.562 297.476C300.859 299.089 298.923 299.852 297.223 301.109C297.418 302.01 297.64 302.906 297.889 303.794L299.226 302.563L299.871 302.733C299.796 303.972 299.69 305.215 299.638 306.455C299.446 310.987 297.873 315.158 297.582 319.625C296.841 331.008 296.532 342.603 296.12 354.013C295.897 360.215 296.854 368.792 294.83 374.6C293.134 379.466 294.331 437.866 294.303 448.229C294.281 456.348 293.318 465.17 294.163 473.176C294.907 480.216 297.516 486.419 300.553 492.718L300.264 493.746C301.526 495.477 302.814 497.304 304.113 498.996Z" fill="#00D98C"/>
<path d="M293.425 291.568L419.507 291.408L419.421 405.872L419.383 437.228C419.38 442.37 419.365 447.494 419.451 452.635C419.782 472.32 431.874 490.622 450.632 497.292L449.823 498.101C445.393 495.605 444.474 496.504 438.512 491.971C414.531 473.738 418.444 451.463 418.336 424.843C418.319 420.655 418.909 415.572 416.82 412.093C415.966 411.596 415.4 411.27 414.603 410.691C412.908 403.957 418.087 405.129 415.873 396.454C414.799 392.248 420.058 379.386 417.22 374.573L416.875 374.916C416.754 375.527 415.349 382.999 415.315 383.064C412.863 382.678 412.051 381.895 409.824 381.114C408.435 382.818 408.518 392.567 408.391 395.607C408.148 401.448 402.388 427.129 397.8 429.059C397.577 438.46 397.505 447.863 397.584 457.266C397.612 469.425 396.962 480.165 402.413 491.436C403.532 493.751 406.805 497.35 407.123 499.508L406.238 500.249C399.989 500.789 390.841 500.339 384.353 500.419C374.823 500.537 363.528 500.931 354.148 499.859C344.117 498.359 331.223 491.326 325.162 483.493C312.478 467.103 313.813 449.279 313.725 429.825C313.641 411.201 314.49 392.068 312.789 373.519C312.243 367.57 313.739 364.909 310.232 358.941C308.248 354.991 306.618 340.551 307.201 336.427L307.566 336.571L308.162 338.014L308.556 337.986C308.804 334.923 308.752 331.498 308.775 328.39L307.455 328.658L306.856 328.055C307.07 325.625 308.616 320.085 309.622 317.795C311.672 317.404 311.036 317.096 312.202 317.88L312.131 319.473C313.683 317.109 312.878 312.895 315.253 311.017C316.349 310.92 317.441 310.779 318.525 310.594C319.838 310.358 321.141 310.009 322.205 309.301C328.189 305.317 333.642 306.179 340.214 304.782C341.883 304.187 342.814 303.965 344.606 304.41C347.122 305.035 347.209 304.991 348.475 303.036C348.972 299.37 347.669 299.069 345.844 296.065C346.386 294.545 346.855 294.762 348.755 293.733L348.778 293.019L348.343 292.745C344.329 292.716 327.503 292.591 324.533 293.515C325.048 294.199 325.566 294.54 326.236 295.065L326.205 295.602C324.674 295.917 321.082 296.106 319.851 295.252C320.462 293.862 320.391 294.274 322.264 293.49L322.127 293.021L310.188 292.718L308.93 294.963C307.444 294.488 307.411 295.062 306.198 294.081L307.818 292.66C306.099 292.064 302.391 292.909 301.445 294.914C299.88 293.615 299.424 292.724 297.811 292.631L297.353 293.465C297.591 295.309 297.332 296.27 298.377 297.215L301.214 296.877L301.57 297.475C300.867 299.088 298.931 299.851 297.231 301.108C297.426 302.009 297.648 302.905 297.897 303.793L299.234 302.562L299.879 302.732C299.804 303.971 299.698 305.214 299.646 306.454C299.454 310.986 297.881 315.157 297.59 319.624C296.849 331.007 296.54 342.602 296.128 354.012C295.905 360.214 296.862 368.791 294.838 374.599C293.142 379.465 294.339 437.865 294.311 448.228C294.289 456.347 293.326 465.169 294.171 473.175C294.915 480.215 297.524 486.418 300.561 492.717L300.272 493.745C291.394 478.215 292.977 469.037 292.996 451.635L293.046 416.847L293.425 291.568Z" fill="black"/>
<path d="M314.878 314.489L341.401 314.474C348.251 314.46 354.914 314.171 361.615 315.317C378.428 318.134 392.425 334.044 395.888 350.321C397.529 358.034 396.929 370.029 396.919 378.283L396.789 444.814C396.746 466.114 393.666 480.795 406.108 499.187C394.557 500.906 376.97 498.471 364.78 499.507C352.028 500.59 338.464 494.853 329.376 485.997C316.147 473.105 314.115 455.782 314.952 438.194C315.194 429.523 314.958 420.018 314.96 411.231L314.878 314.489Z" fill="#00D98C"/>
<path d="M500.942 184.902L501.378 184.994C501.787 187.311 501.994 210.486 501.23 211.737C499.983 211.938 500.378 211.924 499.071 211.808C498.681 213.076 498.852 214.45 499.54 215.584C500.019 216.387 501.385 216.407 502.448 216.785C503.635 219.421 501.974 221.356 500.14 223.364C497.551 226.2 497.736 230.922 497.28 234.584C498.521 235.012 500.112 235.302 500.345 236.626C501.208 241.543 499.961 250.514 500.203 255.278L500.456 253.96C506.441 255.928 503.263 267.115 506.428 269.827L506.16 269.826L506.964 269.298L507.646 269.875L508.651 268.533C511.448 271.488 512.704 278.991 512.587 283.067C512.367 290.691 512.676 286.334 515.271 290.175L516.374 290.025L517.149 291.873C517.148 291.871 517.147 291.868 517.147 291.866L518.263 292.051C518.383 291.295 516.951 288.048 517.159 285.688C517.515 281.659 516.585 276.031 517.81 272.186C518.483 271.623 519.007 271.221 519.718 270.706C522.424 265.065 519.964 265.587 519.329 259.948C519.027 257.271 518.778 252.509 520.565 250.366C523.479 249.86 522.595 251.932 524.464 250.849C525.174 249.056 525.74 247.058 527.142 245.807C526.16 248.371 524.376 253.408 524.774 256.018C521.561 271.182 522.749 283.326 522.575 298.599C522.358 317.578 522.882 336.883 522.449 355.831C521.367 353.136 521.68 345.83 521.696 342.709C521.235 329.18 519.876 313.286 519.811 300.16C518.741 301.609 520.49 301.548 519.23 304.331C516.722 304.206 514.182 287.356 508.162 285.804C500.991 290.124 504.153 313.673 503.538 321.826L504.288 321.359C504.739 319.196 504.808 318.432 504.927 316.21C505.447 319.896 504.597 327.865 504.88 328.848L505.71 328.356C506.558 330.261 503.706 337.519 502.542 339.345L501.825 338.806L501.616 338.979L501.603 440.861C501.7 452.964 501.734 465.067 501.705 477.17C501.723 480.766 502.403 498.043 500.876 500.008C494.919 501.882 456.619 501.2 449.823 498.101L450.632 497.292C462.244 500.925 487.626 499.614 500.73 499.568L500.868 334.034L500.92 290.593C500.941 266.386 501.823 248.828 483.508 229.904C473.134 219.162 458.868 213.055 443.935 212.962C401.734 212.447 358.066 212.979 315.749 212.984L280.949 212.94C259.556 212.868 245.075 211.785 228.326 228.014C210.999 244.802 213.03 262.289 213.023 284.496L213.053 398.28L213.107 431.719C213.154 439.508 212.991 450.782 214.573 458.141C216.773 468.077 221.816 477.159 229.087 484.28C244.364 499.377 258.112 499.209 277.711 499.131L304.121 498.995C302.822 497.303 301.534 495.476 300.272 493.745L300.561 492.717C301.938 494.398 303.928 496.372 304.258 498.4C302.329 501.818 290.979 499.625 286.73 500.487L286.712 501.16C288.419 502.785 288.354 502.197 288.439 503.952L287.552 503.596L286.69 504.582L285.616 502.792L284.776 502.771C282.863 505.096 285.499 505.505 280.702 506.562C279.624 505.876 279.665 505.567 279.096 504.363C277.484 503.713 275.662 504.09 273.879 504.262L273.384 505.541C268.125 507.526 266.48 512.162 266.799 517.725C266.845 518.533 267.927 518.773 268.233 520.781C271.723 523.477 277.985 520.2 279.471 522.464L278.499 523.453C286.983 523.69 297.231 522.971 305.216 523.488L305.694 524.177C293.41 543.022 293.916 545.409 293.982 567.635L294.139 608.527L294.247 689.974C294.248 702.699 293.527 719.488 294.315 731.877L390.492 731.787C394.063 731.792 416.662 732.3 417.737 731.453L418.516 606.716C418.535 598.788 418.507 590.86 418.43 582.933C418.342 576.977 417.833 567.919 418.974 562.275C420.955 552.53 425.794 543.597 432.874 536.616C451.112 518.514 472.339 524.694 495.722 523.239C497.108 523.153 500.147 523.291 501.125 524.16C502.188 528.671 501.769 547.108 501.759 552.569L501.74 606.2V704.014C501.756 722.198 502.159 740.585 501.273 758.726C500.929 765.759 497.082 784.019 490.849 788.192C502.013 766.033 500.545 760.991 500.549 736.313L500.551 694.011L500.711 594.116C500.672 571.413 500.25 547.117 500.745 524.49L476.162 524.452C458.654 524.447 447.201 523.946 433.622 537.219C416.92 553.544 418.818 571.921 419.026 593.53C419.472 639.766 418.39 686.563 418.999 732.767C377.671 732.323 334.554 732.657 293.156 733.004L293.13 604.553L293.161 570.64C293.2 550.999 291.556 539.712 305.352 524.176L278.265 524.103C257.44 524.125 244.677 524.256 228.923 539.701C211.192 557.084 212.591 574.265 212.627 596.96L212.735 635.128L212.667 751.912C212.812 780.931 223.453 798.359 251.103 809.153C243.579 809.703 231.474 799.909 226.455 794.799C210.685 778.743 211.665 761.742 211.88 741.076C211.97 730.364 211.951 719.651 211.824 708.94L211.799 619.864C211.805 605.139 211.661 590.35 211.778 575.636C211.838 567.995 214.534 560.173 217.374 553.183C218.6 550.166 220.208 546.653 220.879 543.51L220.024 543.449C218.77 543.352 218.155 543.187 216.936 542.895C213.321 538.232 224.361 535.992 220.626 527.745C218.886 528.02 218.613 527.927 217.957 529.731C216.058 534.959 207.941 534.857 204.473 537.375C190.423 547.573 192.728 574.591 192.732 589.133L192.748 635.928L192.2 758.243L192.223 807.317C192.218 815.116 192.492 824.598 192.132 832.244C203.95 832.733 305.031 831.191 306.837 833.032C303.29 833.621 276.968 833.258 271.865 833.256L191.055 833.366L191.617 191.348L385.369 191.452L431.758 191.329C464.183 191.168 474.345 189.988 500.69 211.667C501.058 203.275 500.852 193.453 500.942 184.902Z" fill="black"/>
<path d="M522.81 169.455C524.568 151.817 532.398 137.411 546.112 126.119C555.484 118.371 566.785 113.316 578.807 111.494C585.444 110.502 594.835 110.718 601.703 110.695L635.726 110.624C675.61 110.491 715.495 110.573 755.378 110.869C776.294 111.002 797.21 111.012 818.125 110.899C828.907 110.86 842.598 110.398 852.963 111.264C869.931 112.682 887.322 123.109 897.852 136.255C906.262 146.752 912.425 160.1 913.162 173.686C913.926 187.762 913.582 203.53 913.578 217.762L913.552 301.416L913.787 566.05L913.899 761.869L913.954 819.601C913.96 828.361 914.379 843.967 913.506 852.197C911.425 870.287 902.252 886.813 888.002 898.149C878.348 905.928 866.769 910.95 854.492 912.68C847.359 913.728 839.939 913.544 832.724 913.563L805.195 913.627C773.215 913.825 741.233 913.824 709.253 913.625L623.315 913.57C613.06 913.557 589.379 914.127 580.225 913.083C562.808 911.09 546.9 902.25 536.008 888.514C523.061 872.347 522.913 858.906 522.948 839.396L523.026 813.074C545.458 834.79 564.895 832.956 593.738 832.954L643.566 832.939L832.978 832.922V652.144L832.993 592.723C832.988 583.187 833.289 571.557 832.92 562.153C832.308 557.69 832.573 535.86 832.543 529.964C832.428 507.677 831.479 485.473 831.745 463.203C831.864 453.179 832.435 443.21 832.475 433.17L831.754 192.244L726.569 192.049C714.295 192.011 702.163 191.738 689.897 192.513C684.957 192.825 679.917 191.689 674.433 192.114C675.879 192.177 676.022 192.021 677.166 192.818C677.36 194.289 677.482 193.572 676.504 194.975C672.673 196.04 666.472 198.126 662.647 198.324C660.282 198.447 650.653 198.657 649.134 197.334L649.269 196.878L651.149 196.738L650.872 195.282C646.692 195.282 642.512 195.146 638.402 194.337C635.594 193.784 636.495 194.407 635.02 192.261C631.769 192.433 625.545 193.237 622.602 192.885C618.257 192.365 619.061 191.81 614.044 192.043L613.05 192.1C600.628 192.741 586.855 191.608 573.756 192.312C574.263 192.714 574.686 193.057 575.18 193.48C571.017 197.161 564.053 200.409 558.479 200.976C556.74 201.153 552.415 201.158 551.409 201.824C551.603 203.408 551.796 202.751 551.263 204.043C547.375 203.074 541.579 203.344 540.886 202.992C541.602 201.749 545.116 199.336 546.486 198.29L546.972 198.367C547.734 200.514 545.274 200.706 546.945 201.746L548.246 201.656C549.32 199.307 549.34 197.897 551.144 196.308C552.271 195.942 558.795 194.112 559.91 193.893L560.15 193.444C556.045 192.672 542.735 198.944 538.762 201.083C537.125 201.965 533.86 204.192 532.679 204.75C528.074 208.014 529.012 209.44 525.928 211.832C524.887 210.959 524.887 211.275 523.104 211.157C519.694 207.534 523.214 191.138 521.834 186.231C521.087 183.576 505.947 186.031 501.85 184.164L501.373 184.994L500.937 184.902C501.014 179.357 500.807 174.318 500.57 168.792C503.906 167.62 519.874 167.565 522.81 169.455Z" fill="url(#paint2_linear_983_27795)"/>
<path d="M500.57 168.793C503.906 167.621 519.874 167.566 522.81 169.456C522.388 174.5 522.522 179.671 522.553 184.741C522.554 193.067 522.309 202.985 522.791 211.182C525.649 208.965 528.851 206.364 531.79 204.337C548.762 190.971 567.722 191.262 587.57 191.267C596.448 191.234 605.326 191.279 614.203 191.402C638.014 191.113 662.273 191.376 686.123 191.373L832.97 191.137L833.04 453.487L833.027 523.712C833.031 536.11 833.316 549.851 832.92 562.154C832.308 557.691 832.573 535.861 832.543 529.965C832.428 507.678 831.479 485.474 831.745 463.204C831.864 453.18 832.435 443.211 832.475 433.171L831.754 192.245L726.569 192.05C714.295 192.012 702.163 191.739 689.897 192.514C684.957 192.826 679.917 191.69 674.433 192.115C675.879 192.178 676.022 192.022 677.166 192.819C677.36 194.29 677.482 193.573 676.504 194.976C672.673 196.041 666.472 198.127 662.647 198.325C660.282 198.448 650.653 198.658 649.134 197.335L649.269 196.879L651.149 196.739L650.872 195.283C646.692 195.283 642.512 195.147 638.402 194.338C635.594 193.785 636.495 194.408 635.02 192.262C631.769 192.434 625.545 193.238 622.602 192.886C618.257 192.366 619.061 191.811 614.044 192.044L613.05 192.101C600.628 192.742 586.855 191.609 573.756 192.313C574.263 192.715 574.686 193.058 575.18 193.481C571.017 197.162 564.053 200.41 558.479 200.977C556.74 201.154 552.415 201.159 551.409 201.825C551.603 203.409 551.796 202.752 551.263 204.044C547.375 203.075 541.579 203.345 540.886 202.993C541.602 201.75 545.116 199.337 546.486 198.291L546.972 198.368C547.734 200.515 545.274 200.707 546.945 201.747L548.246 201.657C549.32 199.308 549.34 197.898 551.144 196.309C552.271 195.943 558.795 194.113 559.91 193.894L560.15 193.445C556.045 192.673 542.735 198.945 538.762 201.084C537.125 201.966 533.86 204.193 532.679 204.751C528.074 208.015 529.012 209.441 525.928 211.833C524.887 210.96 524.887 211.276 523.104 211.158C519.694 207.535 523.214 191.139 521.834 186.232C521.087 183.577 505.947 186.032 501.85 184.165L501.373 184.995L500.937 184.903C501.014 179.358 500.807 174.319 500.57 168.793Z" fill="black"/>
<path d="M500.57 168.793C503.906 167.621 519.874 167.566 522.81 169.456C522.388 174.5 522.522 179.671 522.553 184.741C516.296 183.807 508.603 184.492 501.85 184.165L501.373 184.995L500.937 184.903C501.014 179.358 500.807 174.319 500.57 168.793Z" fill="black"/>
<path d="M527.137 245.809C527.933 240.815 539.338 226.208 543.415 222.188C548.955 221.209 550.063 218.029 554.312 214.939C555.574 214.023 561.323 214.157 562.398 213.388C566.045 210.778 564.912 209.849 569.311 212.915C572.251 212.662 571.115 210.578 574.173 210.359C581.134 209.859 589.542 211.143 596.193 211.03C603.857 210.899 612.967 207.425 620.692 207.02C627.538 206.331 633.581 208.933 640.365 209.313C641.486 209.375 644.409 207.022 646.093 206.994C652.752 206.882 660.168 207.21 666.83 207.611C668.5 207.891 670.499 209.06 672.005 209.566C677.172 211.301 684.19 210.421 689.636 211.144C704.581 213.131 719.95 211.775 734.883 212.259C749.428 212.73 765.419 210.188 778.747 216.755C794.241 223.824 803.871 235.195 809.493 251.33C812.92 262.402 811.769 281.122 811.766 293.34L811.743 345.04L811.754 417.003C811.778 422.197 813.07 451.828 811.164 454.867C810.942 467.843 799.445 482.352 789.728 489.986C774.82 501.699 758.93 501.152 740.945 500.505C734.063 500.257 725.895 501.321 719.025 500.335C718.678 498.77 722.09 493.264 723.308 491.856C728.561 485.782 731.074 468.996 730.442 461.888C729.34 449.484 732.04 296.088 729.736 292.626C725.498 292.009 720.161 292.547 715.81 292.59C679.511 292.951 643.14 292.308 606.852 292.766C605.929 295.157 605.975 317.842 605.972 321.389C605.79 348.77 605.864 376.152 606.195 403.532C606.543 420.503 607.766 439.97 606.266 455.319C603.072 488.007 574.874 504.24 544.258 500.906C541.449 500.6 531.759 500.19 529.452 501.036C527.541 500.068 523.969 500.659 521.754 500.883C521.78 486.005 521.73 471.372 521.277 456.501C521.278 451.245 521.875 446.004 521.911 440.751C522.095 414.344 521.035 387.877 521.684 361.492C521.829 355.586 520.458 348.391 521.691 342.711C521.675 345.832 521.362 353.138 522.444 355.833C522.877 336.885 522.353 317.58 522.57 298.601C522.744 283.328 521.556 271.184 524.769 256.02C524.371 253.41 526.155 248.373 527.137 245.809Z" fill="url(#paint3_linear_983_27795)"/>
<path d="M527.136 245.809C527.932 240.815 539.337 226.208 543.414 222.188C548.954 221.209 550.062 218.029 554.311 214.939C555.573 214.023 561.322 214.157 562.397 213.388C566.044 210.778 564.911 209.849 569.31 212.915C572.25 212.662 571.114 210.578 574.172 210.359C581.133 209.859 589.541 211.143 596.192 211.03C603.856 210.899 612.966 207.425 620.691 207.02C627.537 206.331 633.58 208.933 640.364 209.313C641.485 209.375 644.408 207.022 646.092 206.994C652.751 206.882 660.167 207.21 666.829 207.611C668.499 207.891 670.498 209.06 672.004 209.566C677.171 211.301 684.189 210.421 689.635 211.144C704.58 213.131 719.949 211.775 734.882 212.259C749.427 212.73 765.418 210.188 778.746 216.755C794.24 223.824 803.87 235.195 809.492 251.33C812.919 262.402 811.768 281.122 811.765 293.34L811.742 345.04L811.753 417.003C811.777 422.197 813.069 451.828 811.163 454.867L810.431 454.933C811.422 447.302 810.969 431.553 810.953 423.131L810.845 366.229L810.932 300.305C810.964 288.398 811.428 275.564 810.704 263.745C809.093 237.448 786.613 213.862 759.837 213.232C747.898 212.952 736.136 213.226 724.339 213.249L659 213.128L602.916 213.01C586.796 212.98 569.34 210.999 554.553 218.612C537.913 227.178 530.581 238.818 524.768 256.02C524.37 253.41 526.154 248.373 527.136 245.809Z" fill="black"/>
<path d="M605.448 291.948L731.475 291.77L731.047 416.591L731.16 450.141C731.286 473.495 732.88 480.011 719.427 499.878L745.873 499.857C753.287 499.813 761.685 499.951 768.924 498.51C789.278 494.459 807.324 475.457 810.432 454.933L811.164 454.867C810.942 467.843 799.445 482.352 789.728 489.986C774.82 501.699 758.93 501.152 740.945 500.505C734.063 500.257 725.895 501.321 719.025 500.335C718.678 498.77 722.09 493.264 723.308 491.856C728.561 485.782 731.074 468.996 730.442 461.888C729.34 449.484 732.04 296.088 729.736 292.626C725.498 292.009 720.161 292.547 715.81 292.59C679.511 292.951 643.14 292.308 606.852 292.766C605.929 295.157 605.975 317.842 605.972 321.389C605.79 348.77 605.864 376.152 606.195 403.532C606.543 420.503 607.766 439.97 606.266 455.319C603.072 488.007 574.874 504.24 544.258 500.906C541.449 500.6 531.759 500.19 529.452 501.036C527.541 500.068 523.969 500.659 521.754 500.883C521.78 486.005 521.73 471.372 521.277 456.501C521.278 451.245 521.875 446.004 521.911 440.751C522.095 414.344 521.035 387.877 521.684 361.492C521.829 355.586 520.458 348.391 521.691 342.711C521.675 345.832 521.362 353.138 522.444 355.833C522.814 367.792 522.509 380.789 522.516 392.856L522.63 463.268C522.657 474.453 522.268 488.982 522.835 499.962L547.229 499.964C554.438 499.965 562.081 500.141 569.1 498.414C585.417 494.399 600.252 479.543 604.049 463.15C606.086 454.358 605.544 443.513 605.53 434.433L605.483 404.476L605.448 291.948Z" fill="black"/>
<path d="M522.732 524.003L545.828 523.909C550.46 523.895 554.928 523.889 559.602 524.071C581.24 524.845 599.082 541.601 603.836 562.27C605.721 570.461 605.139 580.666 605.12 589.198L605.052 619.543L605.027 731.949L730.849 732.279L730.932 605.239L730.952 572.575C730.951 550.639 732.551 541.867 718.444 523.999L745.114 523.938C770.545 523.908 789.398 526.373 804.058 550.472C812.476 564.31 811.606 575.131 811.533 590.75L811.578 751.479C811.509 775.788 802.129 795.506 779.121 806.334C767.457 811.823 754.333 810.731 741.708 810.721L709.971 810.813C668.187 810.958 626.493 810.884 584.645 810.811C565.532 811.305 551.545 806.151 537.867 792.63C519.967 774.936 522.536 753.605 522.532 730.448L522.533 683.352L522.667 576.512C522.695 559.167 522.403 541.301 522.732 524.003Z" fill="url(#paint4_linear_983_27795)"/>
<path d="M363.974 524.23C378.669 523.983 393.537 524.016 408.248 523.943C395.042 538.439 396.902 555.242 396.876 573.487L396.785 638.235C396.784 645.713 397.197 665.641 396.17 672.126C395.152 678.43 392.862 684.461 389.437 689.851C382.872 700.156 372.433 707.381 360.476 709.896C355.474 710.835 347.496 710.694 342.149 710.752L315.472 711.012L315.469 613.509L315.418 584.997C315.407 577.545 315.043 568.421 316.444 561.289C318.194 552.48 322.459 544.367 328.721 537.929C339.242 527.069 349.56 524.519 363.974 524.23Z" fill="url(#paint5_linear_983_27795)"/>
<path d="M672.378 313.211C683.5 312.763 697.073 313.077 708.388 313.033L708.548 411.589C708.58 426.807 709.363 446.547 707.558 461.398C706.65 468.876 699.803 480.576 694.209 485.849C681.218 498.096 670.47 499.703 653.763 499.709C641.532 499.801 629.3 499.757 617.07 499.577C628.541 479.537 626.896 472.192 626.907 449.687L626.916 389.285C626.928 378.58 626.32 358.91 628.522 349.462C630.36 341.337 634.307 333.84 639.965 327.726C648.824 318.044 659.415 313.809 672.378 313.211Z" fill="#00D98C"/>
<path d="M616.93 524.236C629.319 524.3 641.709 524.29 654.099 524.207C664.13 524.227 671.273 524.03 680.449 528.6C699.483 538.08 708.991 554.744 708.598 575.787C708.399 586.441 708.73 598.15 708.773 609.018C708.953 642.608 708.878 676.198 708.548 709.787L683.399 709.798C676.805 709.837 669.118 710.213 662.704 709.031C646.805 706.012 632.722 692.339 628.601 676.742C625.975 666.804 626.844 652.772 626.853 642.257L626.92 581.748C626.933 570.541 627.251 558.376 626.283 547.255C625.816 541.899 622.692 535.018 620.145 530.426C619.077 528.501 617.534 526.309 616.93 524.236Z" fill="url(#paint6_linear_983_27795)"/>
<path d="M539.088 201.322C540.062 202.08 539.827 201.605 539.973 202.646C538.686 203.573 538.384 203.873 537.427 205.138C536.787 204.541 537.076 204.947 536.805 203.779C537.708 203.133 537.82 202.972 538.48 202.118L539.088 201.322Z" fill="black"/>
</g>
<defs>
<linearGradient id="paint0_linear_983_27795" x1="273.26" y1="511.62" x2="456.406" y2="813.668" gradientUnits="userSpaceOnUse">
<stop stop-color="#03FC7D"/>
<stop offset="1" stop-color="#09C39F"/>
</linearGradient>
<linearGradient id="paint1_linear_983_27795" x1="31.1292" y1="229.433" x2="582.657" y2="794.346" gradientUnits="userSpaceOnUse">
<stop stop-color="#01FF6B"/>
<stop offset="1" stop-color="#07BDA1"/>
</linearGradient>
<linearGradient id="paint2_linear_983_27795" x1="472.391" y1="181.292" x2="960.879" y2="842.721" gradientUnits="userSpaceOnUse">
<stop stop-color="#02FF73"/>
<stop offset="1" stop-color="#09ADAA"/>
</linearGradient>
<linearGradient id="paint3_linear_983_27795" x1="557.754" y1="216.582" x2="759.087" y2="508.445" gradientUnits="userSpaceOnUse">
<stop stop-color="#02FF79"/>
<stop offset="1" stop-color="#07D995"/>
</linearGradient>
<linearGradient id="paint4_linear_983_27795" x1="550.767" y1="505.651" x2="771.81" y2="811.427" gradientUnits="userSpaceOnUse">
<stop stop-color="#06DE92"/>
<stop offset="1" stop-color="#08B7A2"/>
</linearGradient>
<linearGradient id="paint5_linear_983_27795" x1="323.677" y1="537.707" x2="396.133" y2="693.154" gradientUnits="userSpaceOnUse">
<stop stop-color="#05F483"/>
<stop offset="1" stop-color="#07D791"/>
</linearGradient>
<linearGradient id="paint6_linear_983_27795" x1="640.03" y1="519.024" x2="693.644" y2="712.206" gradientUnits="userSpaceOnUse">
<stop stop-color="#07DC93"/>
<stop offset="1" stop-color="#07C49D"/>
</linearGradient>
<clipPath id="clip0_983_27795">
<rect width="1024" height="1024" rx="100" fill="white"/>
</clipPath>
</defs>
</svg>
