<svg width="1024" height="1024" viewBox="0 0 1024 1024" fill="none" xmlns="http://www.w3.org/2000/svg">
<rect width="1024" height="1024" rx="100" fill="black"/>
<path d="M946.493 440.531C950.346 421.35 959.382 416.476 976.884 424.073C978.631 422.153 978.516 421.595 979.624 419.053L981.028 418.627L982.47 421.688C987.836 420.666 984.782 418.357 991.218 418.3C1003.5 426.841 994.141 438.011 1009.48 433.234C1011.67 434.193 1010.85 433.442 1012 435.403C1011.19 439.279 1006.62 440.73 1003.05 442.606C1002.86 445.67 1003 445.34 1004.53 448.154C1011.82 461.544 1008.45 476.307 1004.51 490.115C1003.24 494.563 1002.52 500.013 999.308 503.448C987.621 530.966 953.485 707.449 943.295 714.182C941.003 715.697 938.343 715.775 935.712 715.336C924.895 713.528 909.316 703.115 902.954 694.413C889.474 675.983 902.375 644.605 906.035 623.811C896.942 640.891 887.702 659.678 877.268 675.873C867.394 690.277 845.718 686.842 834.585 676.663C818.47 661.923 822.401 632.801 821.311 612.43C813.727 637.324 806.444 662.307 799.464 687.378C796.38 698.756 793.557 710.721 790.355 721.994C786.119 733.036 765.257 720.786 759.984 717.635C738.123 704.559 732.75 693.43 740.222 669.481C754.632 623.303 769.11 573.851 785.041 528.472C791.612 509.76 809.478 443.578 818.232 431.026C833.497 424.111 868.483 454.559 871.803 468.614C874.516 480.1 872.714 504.733 872.632 517.201C872.439 534.558 872.629 551.92 873.197 569.27C885.734 549.232 898.861 521.262 911.99 499.759C918.767 488.66 942.051 450.474 946.493 440.531Z" fill="url(#paint0_linear_983_27797)"/>
<path d="M719.169 441.811C725.204 441.058 731.516 441.358 737.631 441.431C747.706 447.343 752.086 451.467 756.071 462.651C768.693 498.047 733.487 490.304 710.612 495.772C708.196 501.44 706.051 507.853 704.263 513.759C688.847 564.666 676.516 616.381 660.779 667.221C656.194 682.03 653.037 696.964 647.581 711.733C643.575 722.574 634.578 722.915 624.415 720.659C611.194 716.794 592.36 696.657 594.487 681.888C595.991 671.436 600.805 658.117 604.146 647.798L622.055 592.946C631.87 562.684 640.555 531.217 649.678 500.646C630.526 501.735 605.338 504.52 586.163 506.67C581.41 519.857 576.559 537.248 572.319 550.91C554.528 604.696 541.539 664.235 522.59 718.382C521.25 722.249 518.393 729.983 514.03 731.122C500.36 734.698 468.243 714.113 467.181 700.448C465.601 680.158 522.739 531.528 519.579 522.078C516.349 521.962 511.328 522.06 508.297 520.31C489.396 509.432 482.451 464.579 509.295 460.431C522.78 458.347 538.517 459.642 552.837 458.015C608.191 451.73 663.865 448.471 719.169 441.811Z" fill="url(#paint1_linear_983_27797)"/>
<path d="M743.553 443.357C763.747 442.737 780.201 473.756 772.305 489.351C767.259 499.314 733.084 497.485 720.33 500.551C716.831 508.434 701.372 550.342 700.463 558.009C705.833 563.64 724.858 555.643 737.04 561.341C753.379 568.98 756.24 604.956 740 610.136C722.71 615.65 698.233 614.105 678.682 619.071L677.157 619.473C672.652 633.316 668.78 647.358 665.552 661.553C679.696 661.91 690.309 659.933 704.139 657.768C721.976 665.221 735.446 683.008 731.602 702.875C729.53 709.058 728.383 711.897 721.493 713.444C703.917 717.251 685.33 718.452 667.512 720.569C573.319 731.753 591.464 689.547 613.273 626.957C623.174 598.581 633.325 570.291 643.726 542.093C650.859 522.24 669.186 467.102 677.855 452.809C693.785 449.443 727.786 444.56 743.553 443.357Z" fill="url(#paint2_linear_983_27797)"/>
<path d="M152.515 477.089C191.885 474.161 201.889 513.671 191.967 545.207C188.833 543.763 185.667 542.393 182.468 541.098C175.142 538.203 169.627 537.393 161.823 540.53C146.251 546.427 123.799 583.241 126.759 599.688C131.643 626.829 158.762 656.578 166.015 684.898C172.835 711.524 164.589 738.907 137.158 748.508C110.482 757.848 78.2687 746.137 54.0428 735.326C31.0577 724.14 -4.53943 699.672 20.6457 670.313C29.1346 661.239 44.4206 670.444 52.8042 675.029C71.0618 685.021 83.5616 689.741 104.269 690.897C87.8587 665.747 67.7216 639.651 62.8041 609.771C57.7217 578.906 68.2573 550.833 86.5126 526.328C104.303 502.443 122.08 482.176 152.515 477.089Z" fill="url(#paint3_linear_983_27797)"/>
<path d="M321.297 466.502C340.383 465.745 371.482 483.079 358.549 506.356C326.643 563.788 295.141 621.781 266.373 680.85C255.568 703.037 251.955 735.418 236.717 755.594C229.46 764.902 196.1 744.865 193.446 735.244C189.094 724.536 192.883 714.462 196.127 702.69C200.266 689.341 206.919 672.986 210.291 660.328C211.827 654.562 210.186 628.119 209.875 620.855C208.757 592.478 207.482 564.109 206.049 535.748C205.472 523.869 200.797 483.802 209.501 476.414C223.505 470.966 248.223 487.683 256.3 498.846C256.847 523.471 257.662 548.09 258.75 572.698C273.544 546.87 302.625 484.505 321.297 466.502Z" fill="url(#paint4_linear_983_27797)"/>
<path d="M441.84 458.891C484.106 461.531 481.169 500.584 471.46 530.358C463.486 523.215 455.443 516.223 444.207 521.551C426.991 529.718 416.176 549.168 409.748 566.196C403.672 583.475 413.667 599.892 420.95 614.73C431.877 637.599 457.916 673.19 445.643 699.899C424.223 746.509 375.607 736.174 340.312 721.146C324.559 713.508 289.083 695.663 298.037 671.559C301.052 663.441 311.503 658.91 319.28 655.989C341.154 661.567 358.045 673.192 383.157 679.528C381.012 672.01 374.519 659.556 370.389 653.161C337.157 601.679 335.648 550.555 375.985 502.256C394.377 480.231 411.062 462.35 441.84 458.891Z" fill="url(#paint5_linear_983_27797)"/>
<path d="M394.076 293.043C420.154 289.197 436.819 298.123 435.113 328.259C434.291 342.763 424.376 353.13 413.618 361.941C442.919 392.361 414.559 425.595 383.846 439.436C376.33 441.785 332.697 452.088 334.384 435.882C339.047 391.086 353.317 342.099 371.121 300.72C373.619 294.915 388.653 293.713 394.076 293.043ZM386.259 383.25C381.25 383.936 376.577 384.165 373.429 388.464C367.158 397.03 364.718 407.42 363.149 417.518L363.784 419.31C368.083 419.273 369.214 418.598 373.168 417.127C381.973 412.203 400.058 398.463 396.423 386.801C393.548 383.909 390.343 383.342 386.259 383.25ZM405.243 320.521C401.56 319.267 400.284 319.646 396.461 319.98C391.896 325.941 383.836 343.568 385.521 350.981L387.287 351.961C389.535 351.288 390.871 350.958 393.027 350.038C399.831 343.972 413.397 329.586 405.243 320.521Z" fill="url(#paint6_linear_983_27797)"/>
<path d="M662.102 275.922C714.994 274.309 717.304 329.453 683.09 357.488C678.433 361.305 672.456 364.412 667.179 367.416C670.613 376.367 695.015 418.573 682.918 424.245C662.6 433.772 653.835 406.286 647.738 392.585L640.806 377.841L640.421 379.061C640.213 379.742 640.018 380.426 639.808 381.104C635.808 393.901 636.062 410.974 629.979 422.483C628.347 425.568 625.753 428.327 622.129 428.878C617.495 429.582 610.259 426.481 606.546 423.863C603.691 421.848 601.763 419.303 601.303 415.745C600.144 406.785 633.459 289.919 638.553 284.03C644.507 277.15 653.713 276.702 662.102 275.922ZM663.292 300.613C657.527 309.392 651.999 334.211 649.654 345.379L660.288 340.872C674.326 330.914 688.504 306.148 663.292 300.613Z" fill="url(#paint7_linear_983_27797)"/>
<path d="M481.767 285.084C514.951 283.19 537.961 296.934 526.564 334.422C520.427 354.614 503.071 366.349 485.021 375.334C489.438 390.277 498.58 413.901 501.421 426.998C500.279 430.032 499.758 430.442 496.67 432.064C478.516 441.594 471.868 416.674 466.73 404.035L459.113 388.026C455.041 401.684 454.411 423.796 446.034 435.019C444.253 437.402 441.817 439.1 438.764 439.297C434.446 439.571 430.203 436.649 427.076 433.981C424.352 431.657 421.415 428.174 421.298 424.388C421.09 417.671 457.257 294.868 461.996 289.955C466.712 285.066 475.464 285.491 481.767 285.084ZM484.677 309.587C479.489 319.384 474.199 339.705 470.858 351.269C477.055 348.628 478.62 347.809 484.144 343.97C496.907 333.401 515.445 309.386 484.677 309.587Z" fill="url(#paint8_linear_983_27797)"/>
<path d="M580.645 280.074C588.092 279.724 608.485 280.233 608.986 289.206C610.607 318.319 602.149 350.847 598.836 379.946C597.048 395.661 594.987 408.558 592.276 423.472C590.008 435.944 575.335 433.299 569.79 425.581C564.143 418.333 565.676 413.283 566.397 404.673C553.497 405.149 547.652 400.539 541.304 413.423C538.506 419.443 533.958 432.075 530.462 436.077C521.962 438.612 514.374 432.098 511.087 424.618C510.293 406.419 566.792 299.399 580.645 280.074ZM577.067 341.517C573.892 346.99 558.831 372.149 559.691 376.348C561.825 376.178 567.63 376.185 568.34 375.073C571.247 370.511 577.649 345.953 577.067 341.517Z" fill="url(#paint9_linear_983_27797)"/>
<path d="M779.344 265.067C791.04 264.536 795.159 267.078 802.908 275.706C782.828 318.456 750.567 357.443 739.695 403.712C733.786 428.864 720.947 429.496 704.977 410.425L707.49 400.781C720.762 362.241 718.708 324.854 714.358 285.378C713.516 277.226 716.194 272.805 724.017 270.448C749.127 262.886 745.187 300.928 747.119 317.816C756.45 303.868 769.049 275.896 779.344 265.067Z" fill="url(#paint10_linear_983_27797)"/>
<path d="M252.89 303.222C288.775 299.035 274.355 321.33 270.069 337.392C265.825 353.303 241.977 411.177 244.009 423.306C249.515 425.83 263.927 417.236 274.087 422.981C279.442 429.505 277.729 437.666 277.535 446.621L264.321 448.02C249.879 448.333 221.99 456.698 211.024 448.141C199.814 428.649 230.424 360.915 236.537 338.733C238.911 330.118 246.48 308.658 252.89 303.222Z" fill="url(#paint11_linear_983_27797)"/>
<path d="M336.157 296.166C351.704 298.271 357.551 305.009 352.2 320.305C337.807 361.451 325.259 402.412 314.667 444.698C313.957 447.53 309.117 448.846 306.606 449.654C303.62 449.022 300.642 448.274 297.76 447.26C292.984 445.583 289.154 442.698 287.187 437.923C282.428 426.363 317.221 321.987 324.902 305.069C327.393 299.577 330.706 298.045 336.157 296.166Z" fill="url(#paint12_linear_983_27797)"/>
<defs>
<linearGradient id="paint0_linear_983_27797" x1="874.525" y1="418.3" x2="874.525" y2="726.517" gradientUnits="userSpaceOnUse">
<stop stop-color="#02FF73"/>
<stop offset="1" stop-color="#09ADAA"/>
</linearGradient>
<linearGradient id="paint1_linear_983_27797" x1="612.938" y1="441.311" x2="612.938" y2="731.533" gradientUnits="userSpaceOnUse">
<stop stop-color="#02FF73"/>
<stop offset="1" stop-color="#09ADAA"/>
</linearGradient>
<linearGradient id="paint2_linear_983_27797" x1="685.052" y1="443.348" x2="685.052" y2="722.366" gradientUnits="userSpaceOnUse">
<stop stop-color="#02FF73"/>
<stop offset="1" stop-color="#09ADAA"/>
</linearGradient>
<linearGradient id="paint3_linear_983_27797" x1="103.769" y1="476.936" x2="103.769" y2="751.91" gradientUnits="userSpaceOnUse">
<stop stop-color="#02FF73"/>
<stop offset="1" stop-color="#09ADAA"/>
</linearGradient>
<linearGradient id="paint4_linear_983_27797" x1="276.546" y1="466.479" x2="276.546" y2="758" gradientUnits="userSpaceOnUse">
<stop stop-color="#02FF73"/>
<stop offset="1" stop-color="#09ADAA"/>
</linearGradient>
<linearGradient id="paint5_linear_983_27797" x1="387.065" y1="458.891" x2="387.065" y2="733.822" gradientUnits="userSpaceOnUse">
<stop stop-color="#02FF73"/>
<stop offset="1" stop-color="#09ADAA"/>
</linearGradient>
<linearGradient id="paint6_linear_983_27797" x1="384.784" y1="292.201" x2="384.784" y2="444.826" gradientUnits="userSpaceOnUse">
<stop stop-color="#02FF73"/>
<stop offset="1" stop-color="#09ADAA"/>
</linearGradient>
<linearGradient id="paint7_linear_983_27797" x1="653.561" y1="275.887" x2="653.561" y2="428.98" gradientUnits="userSpaceOnUse">
<stop stop-color="#02FF73"/>
<stop offset="1" stop-color="#09ADAA"/>
</linearGradient>
<linearGradient id="paint8_linear_983_27797" x1="475.407" y1="284.914" x2="475.407" y2="439.315" gradientUnits="userSpaceOnUse">
<stop stop-color="#02FF73"/>
<stop offset="1" stop-color="#09ADAA"/>
</linearGradient>
<linearGradient id="paint9_linear_983_27797" x1="560.135" y1="279.998" x2="560.135" y2="436.634" gradientUnits="userSpaceOnUse">
<stop stop-color="#02FF73"/>
<stop offset="1" stop-color="#09ADAA"/>
</linearGradient>
<linearGradient id="paint10_linear_983_27797" x1="753.942" y1="265" x2="753.942" y2="423.767" gradientUnits="userSpaceOnUse">
<stop stop-color="#02FF73"/>
<stop offset="1" stop-color="#09ADAA"/>
</linearGradient>
<linearGradient id="paint11_linear_983_27797" x1="243.263" y1="302.708" x2="243.263" y2="451.982" gradientUnits="userSpaceOnUse">
<stop stop-color="#02FF73"/>
<stop offset="1" stop-color="#09ADAA"/>
</linearGradient>
<linearGradient id="paint12_linear_983_27797" x1="320.44" y1="296.166" x2="320.44" y2="449.654" gradientUnits="userSpaceOnUse">
<stop stop-color="#02FF73"/>
<stop offset="1" stop-color="#09ADAA"/>
</linearGradient>
</defs>
</svg>
